<?xml version="1.0" encoding="UTF-8"?>
<svg width="1em" height="1em" viewBox="0 0 12 12" version="1.1" xmlns="http://www.w3.org/2000/svg" xmlns:xlink="http://www.w3.org/1999/xlink">
    <defs>
        <polygon id="path-1" points="3.97103879e-17 0 10 0 10 12 3.97103879e-17 12"></polygon>
    </defs>
    <g stroke="none" stroke-width="1" fill="none" fill-rule="evenodd">
        <g transform="translate(1.000000, 0.000000)">
            <mask id="mask-2" fill="white">
                <use xlink:href="#path-1"></use>
            </mask>
            <g id="Clip-2"></g>
            <path d="M0.348918962,0 L6.88767775,0 L10,3.02005159 L10,11.665179 C10,11.8500504 9.84380643,12 9.65108104,12 L0.348918962,12 C0.156193573,12 0,11.8500504 0,11.665179 L0,0.334820961 C0,0.149882603 0.156193573,0 0.348918962,0 Z" id="Fill-1" fill="#5ACC9B" mask="url(#mask-2)"></path>
        </g>
        <polygon id="Fill-4" fill="#FFFFFF" points="5.28121974 6.41733229 3.15622686 4 4.62498881 4 6.01564954 5.73034642 7.46876195 4 8.8905997 4 6.71878026 6.41733229 9 8.98735682 7.51558851 8.98735682 5.98435046 7.15528847 4.45313683 9 3 9"></polygon>
        <path d="M8,0 L8,2.66740208 C8,2.85111254 8.15055662,3 8.33632664,3 L11,3 L8,0 Z" id="Fill-3" fill-opacity="0.8" fill="#FFFFFF"></path>
    </g>
</svg>
